<svg width="803" height="1338" viewBox="0 0 803 1338" fill="none" xmlns="http://www.w3.org/2000/svg">
<g clip-path="url(#clip0_74_65)">
<path d="M23.5 1336.3C16.6 1332.7 14 1328.3 14 1320.1C14 1309.6 18.5 1305.4 31.8 1303.4C56.7 1299.6 66.2 1297.6 80.5 1292.9C99.5 1286.6 124.4 1272.5 135.2 1261.8C144.1 1253 150.8 1242.5 154.5 1231.6C158.4 1220.1 161.1 1197.4 163 1162C164.6 1132.2 164.7 1021.6 163.1 1006.5C159.3 969.2 154.5 951.4 142.9 930.5C135.1 916.4 125.8 904.4 100 875.5C82.9 856.3 79.9 852.6 71.1 840.2C24.7 775.3 0 685.3 0 580.5C0 532.3 6 458.9 15 396.5C16.3 387.4 18.9 369.6 19.6 364.5C20.4 358.1 21.7 350.1 25.9 324C28.1 310.5 30.8 293.4 32 286C35.8 260.6 36.3 259.4 43 256C46.9 254 49.2 254 186.7 254C316.3 254.1 326.8 254.2 330 255.8C335.2 258.4 337.6 262.7 338.9 272.2C339.6 276.8 340.6 282.8 341.1 285.5C342.1 291.4 344.7 306.7 346.1 316C346.7 319.6 347.6 325.2 348.1 328.5C350.4 342.9 350.9 346.2 353 359.5C354.1 367.2 355.5 376.5 356 380.3C356.6 384 357.5 390.3 358 394.3C358.6 398.2 359.5 405 360 409.2C360.6 413.5 361.5 420.7 362 425.2C370.1 490.2 372.4 522.6 372.4 576.5C372.5 625 371.4 641.2 365.9 676C357.1 730.9 340.8 778.6 317.4 817.8C306.1 836.7 287.2 861.2 270.2 879C268.3 880.9 262.9 887.2 258.2 893C253.4 898.8 249.3 903.7 248.9 904C248.6 904.3 245.2 909 241.5 914.5C227.9 934.5 217.4 961.4 213.1 987.5C212.4 991.4 211.7 995.9 211.4 997.5C209 1012.1 208 1037.8 208 1092.5C208 1189.6 210.8 1221.9 220.9 1240.1C230.6 1257.8 246.7 1271.8 271.6 1284.3C291.1 1294.2 308.7 1298.9 343 1303.7C349.5 1304.6 352.6 1306.5 355.5 1311.3C360.5 1320 357.6 1331.5 349.3 1335.6C345.6 1337.4 339.9 1337.5 186 1337.7C41.9 1337.9 26.2 1337.8 23.5 1336.3ZM195.5 876.6C227.1 871.7 256.5 850.7 281.1 815.5C314.5 767.7 334.7 703.9 341.1 626.5C342.6 608.8 342.6 547.2 341.1 523.5C338.7 484.6 333.7 435.1 329 402C327.9 394.6 326.8 386.7 326.5 384.5C325.7 378.9 323.5 364.3 321 348.7C318.8 334.5 316.9 322.4 315.5 313.3C314.6 307.9 313.5 300.4 312.9 296.5C312.3 292.7 311.6 288.5 311.4 287.3L311 285H186.7H62.4L61.2 291.3C60.6 294.7 59.6 300.4 59.1 304C57.6 313.4 54.1 335.5 53 342.5C51.4 352.3 47.8 377 46.1 390.5C37.3 457.2 34.2 487.6 31.5 533.5C28.2 590.1 30.8 634.5 40.2 681.5C55.3 757.7 84.7 817.4 124.4 852.8C139.3 866 153.5 873.3 170.5 876.5C179.7 878.2 184.7 878.2 195.5 876.6Z" fill="#7F7776"/>
<path d="M172.5 852C152.5 848 129.9 829.3 111.5 801.6C90.8999 770.4 77.8999 737.7 66.8999 689C66.2999 686.5 65.3999 682.7 64.8999 680.5C62.4999 669.7 58.9999 646.5 56.7999 626.5C53.3999 594.7 56.4999 489.9 60.9999 484.5C62.0999 483.2 78.5999 483 186 483C283.8 483 310 483.3 310.7 484.3C314.8 489.3 317.6 585.9 315 626.5C313 657.2 307.9 688.1 301.5 708.5C300.9 710.7 299.7 714.5 299 717C290.9 745.5 277.1 778.1 265.2 797C259.9 805.4 247.6 820.2 240.7 826.6C219.8 845.8 192.5 856 172.5 852ZM216.3 793.3C220.3 789.4 222 785.8 222 780.8C222 772 215.5 766 205.8 766C201.2 766 199.6 766.5 197 768.6C192.9 772.1 191 776 191 781C191 788.2 195.4 794.6 201.5 796.3C206.1 797.6 213.3 796.1 216.3 793.3ZM177.6 733.5C182.1 730 184 726.2 184 720.2C184 713.9 180 708 174.1 705.6C168.7 703.5 165.5 703.6 160.5 706C154.5 708.9 151.6 714.4 152.2 721.9C152.7 728.4 154.7 731.8 160 735C164.8 737.9 172.7 737.2 177.6 733.5ZM224.4 678.8C229.7 677.2 237.4 669.6 238.3 665.1C240.8 652.6 236.2 643.3 225.2 639C217.4 635.9 206.7 640 201.3 648.1C194.1 659.1 199.9 674.7 212.7 678.7C217.7 680.2 219.5 680.2 224.4 678.8ZM169.2 615.7C182 608.2 185 590.4 175.3 579C157.8 558.6 125.5 576.4 133.2 602.2C134.7 607.3 140.8 614.2 146.2 617C152.2 620 162.9 619.4 169.2 615.7ZM252.3 579.6C261.4 576.3 267.6 568.4 268.6 558.4C269.4 550.6 266.6 543.5 260.4 538.1C253.2 531.8 245.2 530.5 235.7 534C220.1 539.8 215 559.4 225.8 572C232.5 579.9 242.9 582.9 252.3 579.6Z" fill="#D2C295"/>
<path d="M142.6 456C129.8 451 123.1 436.5 127.2 422.8C128.6 417.9 135 410.5 140 408C153 401.3 169.1 407.1 175.5 420.7C177.8 425.4 178.1 427.3 177.8 432.9C177.1 444.2 171.5 452.2 161.4 455.9C154.6 458.5 149 458.5 142.6 456Z" fill="#D2C295"/>
<path d="M206.5 379.9C202.1 378.7 196.3 373.4 193.8 368.7C191.2 363.5 190.9 353 193.3 348.3C195.6 344 200.8 339 204.8 337.3C206.7 336.5 211.2 335.9 214.7 335.9C223 335.9 229 339.3 233.5 346.4C236.1 350.7 236.5 352.3 236.5 358.4C236.4 366.1 235 369.9 230.3 374.6C224.7 380.2 214.9 382.4 206.5 379.9Z" fill="#D2C295"/>
<path d="M262.2 1102.4C261 1101.6 259.1 1099.1 258 1097C256.3 1093.6 256 1091.1 256 1077.5C256 1038.9 266.3 1002.7 283.3 982C297 965.2 313.9 955.6 337.6 951.1C344.9 949.8 365.8 949.7 376.6 950.9C409.1 954.8 435 956.3 447.6 955C465.3 953.2 478.8 947.8 487.4 939.3C497.2 929.5 498.9 919.7 496.4 888.9C494.1 859.5 495.8 850.3 505.9 838.9C511.7 832.3 515 827 515 824.3C515 820.4 508 814 493.8 805.1C462.9 785.4 457.9 779.9 458.1 765.3C458.2 757.4 459.3 753.8 463.6 747.7C467.7 742 476.5 736.2 500.1 724C539.4 703.5 541.6 699.9 529.4 676.7L523.5 665.5V656.3C523.5 647.5 523.6 647 527 642.1C529.6 638.4 535.4 633.4 548.5 623.7C573.3 605.3 578 599.5 578 586.6C578 576 575.5 572.3 552.5 549.5C516.1 513.2 486.7 478.9 476.4 460.4C467.9 445.1 463 429.8 461.1 411.8C460.5 406.4 460 391.1 460 377.8C460 336.7 456 314.2 442.8 280.8C428.9 245.4 406.1 218.3 369.7 193.8C356 184.6 353.8 181.5 356.2 175.1C357.9 170.6 361.8 168.6 366.7 169.5C371.5 170.4 396.5 183.2 406.5 189.9C427.7 204.1 441.5 218 455.2 239C470.3 262 480.4 288.2 487.1 321.5C490.6 339.2 492 354.5 492 378.5C492 410.8 493.7 422.8 500.3 436.9C508.9 455.4 532.5 483.9 578 530.5C601.5 554.5 604.5 558.7 608 572.8C611.6 586.9 610.3 597.9 603.5 611.7C598.4 621.9 588.3 631.7 570.4 643.6C562.4 648.9 555.5 654 555 655C552.7 659.2 553.8 662.6 561.3 676.1C568.4 688.7 569.6 697.2 565.8 708.5C561.7 721 554.7 726.6 519.6 745.3C488.2 762.2 485.3 764.4 490 768C491.4 769 498.8 773.6 506.5 778.2C538.3 797.1 546 806.2 546 825.7C546 835.1 543.6 841.5 536.4 850.9C527.1 863 526.7 864.5 528.2 880.2C530.1 900.1 529.9 925 527.7 932.5C519.8 959.5 497.4 978.4 465 985.5C460.3 986.6 450.6 987.4 439 987.7C420.6 988.2 412.7 987.7 376.5 983.5C343.4 979.7 326 983.4 311.2 997.2C295.7 1011.8 287.9 1031.2 281.2 1072C280.6 1075.6 279.6 1081.7 279 1085.5C277.5 1094.6 275.2 1100.8 272.6 1102.6C269.9 1104.5 265 1104.4 262.2 1102.4Z" fill="#7F7776"/>
<path d="M732.4 927.9C727.1 925.4 724 919.9 724 913.4C724 909.3 724.8 907.1 729.1 900C740.7 880.8 751.2 857.6 757.1 838C765.9 809.3 768.5 790.2 768.5 756.5C768.4 732.1 768 727.4 764 704.2C759.4 677.4 745.9 642.4 729.4 614.3C723.3 603.9 722.6 599.7 726 592.9C729.5 586.1 737 582.9 744.5 585C750 586.5 752.6 589.3 759 600.5C774 626.5 785.9 655.2 793 682.7C803.8 724.4 805 774.5 796.3 817C793.8 829.4 791.7 837.8 789.5 845C782.7 867.4 773.5 888.2 761 910C751.6 926.2 751.9 925.8 747.4 928C742.3 930.5 737.7 930.5 732.4 927.9Z" fill="#D2C295"/>
<path d="M674.5 876.8C669.7 875.1 666.4 872.3 664.6 868.6C661.7 862.4 662.5 858.3 669.4 844.2C679.2 824.4 685.8 803.2 689 781.3C690.5 770.8 690.2 745 688.5 734.5C685 712.8 678.2 693.7 667.3 674.5C662.4 665.8 661.6 663.8 661.6 658.9C661.5 654.6 662 652.6 664 649.7C668.5 643 679.5 641 685.9 645.8C689.7 648.5 694.2 655.7 701.5 670.5C711.6 691 716.9 706.7 720.7 727.8C723.1 741 723.1 779.4 720.7 792.3C717.6 808.6 713.9 822.5 709.5 834C704 848.4 692.8 870.6 689.7 873.3C685.6 876.9 679 878.4 674.5 876.8Z" fill="#D2C295"/>
<path d="M617.4 825.1C610.1 823.3 605 816.9 605 809.4C605 807 606.6 802.1 609.5 796.1C621.2 770.9 620.9 750.9 608.4 724.3C603.4 713.8 604 707.1 610.3 701.2C615.5 696.3 625.7 696.4 631 701.5C632.5 703 635.6 708 637.9 712.6C654 746 654.1 777.9 638.1 810.6C634.4 818.3 632.4 821.2 629.9 822.7C625.7 825.3 621.5 826 617.4 825.1Z" fill="#D2C295"/>
<path d="M191 223.5C191 222.7 190.6 222 190.2 222C189.7 222 188.6 219.4 187.7 216.2C184.7 205.4 176.9 197.7 165.4 194.5C162.2 193.5 158.9 192.2 158.1 191.4C156.9 190.3 157 189.9 159.4 189C160.9 188.5 163 188 164 188C168.8 188 177 183.8 181.2 179.1C185.5 174.4 186.6 172 189 162.8C189.9 159.4 190.8 158 192 158C193.2 158 194.1 159.4 195 162.8C198.8 178 205.8 184.8 220.8 188.1C227.3 189.4 227.5 191.3 221.3 193C206.4 197 197.9 206.2 194.5 221.8C193.8 225 191 226.4 191 223.5Z" fill="#D2C295"/>
<path d="M88.1 180.7C87.6 180 85.5 172.8 83.5 164.6C78.2 143.3 73 131.5 64.1 120.8C61.1 117.1 51.4 110.1 44.9 107C41.4 105.3 37.8 103.5 37 103.1C36.1 102.6 28.7 100.6 20.5 98.5C4.1 94.4 2 93.6 2 91.5C2 89.6 4.4 88.5 11.5 87C43.1 80.7 56.5 73.9 67.5 58.6C74.9 48.2 78.9 37.7 83.5 16.5C86.4 2.9 87.1 0.899999 88.7 0.299999C91.1 -0.600001 92.6 2.2 94.5 10.8C101.2 42.8 105.3 52.4 118 65C130.2 77.3 139 81.4 162.5 86.1C179 89.4 181 92.5 168.6 96C164.7 97.1 159.7 98.5 157.5 99.1C140.9 103.5 131.2 108.1 121.7 116C109.7 126 102.7 138.9 97.3 160.8C95.3 168.9 93.3 176.7 92.8 178.2C91.7 181.3 89.6 182.4 88.1 180.7Z" fill="#D2C295"/>
<path d="M254.1 111.3C253.5 109.2 252.6 105.3 252 102.7C249.9 93.3 243.5 83.3 236.7 79.1C233.3 77 226.7 74.6 221 73.5C214.9 72.2 213 71.2 213.6 69.5C213.9 68.7 215 68 216.1 68C217.1 68 220.4 67.3 223.5 66.5C239 62.5 247.9 53.8 251.5 39C255.4 23.2 257 22.1 259.5 33.2C264 53.2 273.7 63 292.8 67C301.5 68.8 300.8 70.6 290.4 73.6C272.6 78.7 264.8 86.8 260.6 104.5C259.6 108.4 258.6 112.3 258.4 113.3C257.5 116.3 255.1 115.2 254.1 111.3Z" fill="#D2C295"/>
</g>
<defs>
<clipPath id="clip0_74_65">
<rect width="803" height="1338" fill="white"/>
</clipPath>
</defs>
</svg>
