<svg width="265" height="252" viewBox="0 0 265 252" fill="none" xmlns="http://www.w3.org/2000/svg">
<g clip-path="url(#clip0_10_8)">
<mask id="path-1-outside-1_10_8" maskUnits="userSpaceOnUse" x="0" y="0" width="265" height="252" fill="black">
<rect fill="white" width="265" height="252"/>
<path d="M132 2C60.3204 2 2.0004 54.52 2.0004 119.07C2.0004 141.565 9.0904 163.35 22.5304 182.205C19.9804 210.095 13.2304 230.765 3.4654 240.535C1.9454 242.055 1.5654 244.375 2.5254 246.3C3.3804 248.015 5.1254 249.07 7.0004 249.07C7.2304 249.07 7.4654 249.055 7.7004 249.02C9.4454 248.775 49.8604 242.955 79.2854 226.095C95.9354 232.76 113.655 236.14 132.005 236.14C203.685 236.14 262.005 183.625 262.005 119.07C262.005 54.515 203.685 2 132 2Z"/>
</mask>
<path d="M132 2C60.3204 2 2.0004 54.52 2.0004 119.07C2.0004 141.565 9.0904 163.35 22.5304 182.205C19.9804 210.095 13.2304 230.765 3.4654 240.535C1.9454 242.055 1.5654 244.375 2.5254 246.3C3.3804 248.015 5.1254 249.07 7.0004 249.07C7.2304 249.07 7.4654 249.055 7.7004 249.02C9.4454 248.775 49.8604 242.955 79.2854 226.095C95.9354 232.76 113.655 236.14 132.005 236.14C203.685 236.14 262.005 183.625 262.005 119.07C262.005 54.515 203.685 2 132 2Z" fill="#8C1515"/>
<path d="M132 2C60.3204 2 2.0004 54.52 2.0004 119.07C2.0004 141.565 9.0904 163.35 22.5304 182.205C19.9804 210.095 13.2304 230.765 3.4654 240.535C1.9454 242.055 1.5654 244.375 2.5254 246.3C3.3804 248.015 5.1254 249.07 7.0004 249.07C7.2304 249.07 7.4654 249.055 7.7004 249.02C9.4454 248.775 49.8604 242.955 79.2854 226.095C95.9354 232.76 113.655 236.14 132.005 236.14C203.685 236.14 262.005 183.625 262.005 119.07C262.005 54.515 203.685 2 132 2Z" stroke="white" stroke-width="4" mask="url(#path-1-outside-1_10_8)"/>
<mask id="path-2-outside-2_10_8" maskUnits="userSpaceOnUse" x="72.0054" y="0" width="192" height="252" fill="black">
<rect fill="white" x="72.0054" width="192" height="252"/>
<path d="M132.005 2C203.685 2 262.005 54.52 262.005 119.07C262.005 141.565 254.915 163.35 241.475 182.205C244.025 210.095 250.775 230.765 260.54 240.535C262.06 242.055 262.44 244.375 261.48 246.3C260.625 248.015 258.88 249.07 257.005 249.07C256.775 249.07 256.54 249.055 256.305 249.02C254.56 248.775 214.145 242.955 184.72 226.095C168.07 232.76 150.35 236.14 132 236.14C2 119 132 183.555 132 119C132 54.445 262 119 132.005 2Z"/>
</mask>
<path d="M132.005 2C203.685 2 262.005 54.52 262.005 119.07C262.005 141.565 254.915 163.35 241.475 182.205C244.025 210.095 250.775 230.765 260.54 240.535C262.06 242.055 262.44 244.375 261.48 246.3C260.625 248.015 258.88 249.07 257.005 249.07C256.775 249.07 256.54 249.055 256.305 249.02C254.56 248.775 214.145 242.955 184.72 226.095C168.07 232.76 150.35 236.14 132 236.14C2 119 132 183.555 132 119C132 54.445 262 119 132.005 2Z" fill="#4298B5"/>
<path d="M132.005 2C203.685 2 262.005 54.52 262.005 119.07C262.005 141.565 254.915 163.35 241.475 182.205C244.025 210.095 250.775 230.765 260.54 240.535C262.06 242.055 262.44 244.375 261.48 246.3C260.625 248.015 258.88 249.07 257.005 249.07C256.775 249.07 256.54 249.055 256.305 249.02C254.56 248.775 214.145 242.955 184.72 226.095C168.07 232.76 150.35 236.14 132 236.14C2 119 132 183.555 132 119C132 54.445 262 119 132.005 2Z" stroke="white" stroke-width="4" mask="url(#path-2-outside-2_10_8)"/>
<circle cx="132" cy="119" r="84" fill="white"/>
<circle cx="132" cy="119" r="80.707" stroke="#53565A" stroke-width="1.21"/>
<g clip-path="url(#clip1_10_8)">
<path d="M132 51.8C122.103 51.8 114.08 59.8231 114.08 69.7201V87.6402H149.92V69.7201C149.92 59.8231 141.897 51.8 132 51.8Z" fill="#2E2D29"/>
<path d="M114.08 94.808V112.728C114.08 122.625 122.103 130.648 132 130.648C141.897 130.648 149.92 122.625 149.92 112.728V94.808H114.08Z" fill="#2E2D29"/>
<path d="M171.424 112.728H160.672C160.672 128.538 147.81 141.4 132 141.4C116.19 141.4 103.328 128.538 103.328 112.728H92.5759C92.5759 132.643 107.42 149.154 126.624 151.784V167.8H114.08V195H149.92V167.8H137.376V151.784C156.58 149.154 171.424 132.643 171.424 112.728Z" fill="#2E2D29"/>
</g>
</g>
<defs>
<clipPath id="clip0_10_8">
<rect width="265" height="252" fill="white"/>
</clipPath>
<clipPath id="clip1_10_8">
<rect x="64.8" y="51.8" width="134.4" height="134.4" rx="67.2" fill="white"/>
</clipPath>
</defs>
</svg>
