<svg width="22" height="22" viewBox="0 0 22 22" fill="none" xmlns="http://www.w3.org/2000/svg">
<g clip-path="url(#clip0_2_22)">
<circle cx="10.9375" cy="10.9375" r="10.9375" fill="#8C1515"/>
<path d="M8.69 9.5C2.93 10.84 4.08 13.5 11 13.5C17.92 13.5 19.07 10.83 13.31 9.5" stroke="white" stroke-width="0.25" stroke-miterlimit="10" stroke-linecap="round"/>
<path d="M13.5 11.63H8.5" stroke="white" stroke-width="0.25" stroke-miterlimit="10" stroke-linecap="round"/>
<path d="M10 8.4375H9.9375V8.5V11.5V11.5625H10H12H12.0625V11.5V8.5V8.4375H12H10Z" fill="#175E54" stroke="white" stroke-width="0.125"/>
<path d="M9 7.5C9 8.5 10 8.5 11 8.5C12 8.5 13 8.5 13 7.5" stroke="white" stroke-width="0.25" stroke-miterlimit="10" stroke-linecap="round"/>
<mask id="path-6-outside-1_2_22" maskUnits="userSpaceOnUse" x="9" y="3" width="4" height="6" fill="black">
<rect fill="white" x="9" y="3" width="4" height="6"/>
<path d="M10 7C10 7.66667 10.3333 8 11 8C11.6667 8 12 7.66667 12 7M10 6V6.5H12V6H10ZM10 5.5C10 4.5 10 4 11 4C12 4 12 4.5 12 5.5"/>
</mask>
<path d="M10 7C10 7.66667 10.3333 8 11 8C11.6667 8 12 7.66667 12 7M10 6V6.5H12V6H10ZM10 5.5C10 4.5 10 4 11 4C12 4 12 4.5 12 5.5" fill="#175E54"/>
<path d="M10 6V5.875H9.875V6H10ZM10 6.5H9.875V6.625H10V6.5ZM12 6.5V6.625H12.125V6.5H12ZM12 6H12.125V5.875H12V6ZM9.875 7C9.875 7.3526 9.96324 7.64001 10.1616 7.83839C10.36 8.03676 10.6474 8.125 11 8.125V7.875C10.6859 7.875 10.4733 7.79657 10.3384 7.66161C10.2034 7.52665 10.125 7.31407 10.125 7H9.875ZM11 8.125C11.3526 8.125 11.64 8.03676 11.8384 7.83839C12.0368 7.64001 12.125 7.3526 12.125 7H11.875C11.875 7.31407 11.7966 7.52665 11.6616 7.66161C11.5267 7.79657 11.3141 7.875 11 7.875V8.125ZM9.875 6V6.5H10.125V6H9.875ZM10 6.625H12V6.375H10V6.625ZM12.125 6.5V6H11.875V6.5H12.125ZM12 5.875H10V6.125H12V5.875ZM10.125 5.5C10.125 5.24838 10.1251 5.03536 10.1402 4.85413C10.1553 4.67248 10.1848 4.53484 10.2368 4.4309C10.2865 4.33147 10.3589 4.25854 10.4726 4.20798C10.5907 4.15549 10.7585 4.125 11 4.125V3.875C10.7415 3.875 10.5343 3.90701 10.3711 3.97952C10.2036 4.05396 10.0885 4.16853 10.0132 4.3191C9.94017 4.46516 9.90717 4.64002 9.89106 4.83337C9.87491 5.02714 9.875 5.25162 9.875 5.5H10.125ZM11 4.125C11.2415 4.125 11.4093 4.15549 11.5274 4.20798C11.6411 4.25854 11.7135 4.33147 11.7632 4.4309C11.8152 4.53484 11.8447 4.67248 11.8598 4.85413C11.8749 5.03536 11.875 5.24838 11.875 5.5H12.125C12.125 5.25162 12.1251 5.02714 12.1089 4.83337C12.0928 4.64002 12.0598 4.46516 11.9868 4.3191C11.9115 4.16853 11.7964 4.05396 11.6289 3.97952C11.4657 3.90701 11.2585 3.875 11 3.875V4.125Z" fill="white" mask="url(#path-6-outside-1_2_22)"/>
<path d="M13.0475 8.58593C13.0487 8.57933 13.0498 8.57306 13.0508 8.56717L13.0616 8.56814C13.1051 8.57221 13.1692 8.5786 13.2508 8.58781C13.414 8.60623 13.6474 8.63595 13.9276 8.68108C14.4881 8.77139 15.2346 8.92323 15.9804 9.16935C16.727 9.41571 17.4685 9.75516 18.0224 10.2186C18.5751 10.681 18.9375 11.2635 18.9375 12V14.5C18.9375 15.1324 18.6953 15.9872 17.7137 16.6866C16.7358 17.3834 15.0182 17.9298 12.0625 17.9374V15V14.9375H12H11.5H11.4375V15V17.9375H10.5625V15V14.9375H10.5H10H9.9375V15V17.9374C6.98342 17.9288 5.26585 17.3113 4.28746 16.5787C3.30329 15.8418 3.0625 14.9854 3.0625 14.5V12C3.0625 11.2635 3.42492 10.681 3.97761 10.2186C4.53147 9.75516 5.27304 9.41571 6.01959 9.16935C6.7654 8.92323 7.51191 8.77139 8.07244 8.68108C8.35258 8.63595 8.58596 8.60623 8.7492 8.58781C8.83081 8.5786 8.89486 8.57221 8.93844 8.56814L8.94917 8.56717C8.95023 8.57306 8.95133 8.57933 8.95247 8.58593C8.96015 8.63044 8.96927 8.68954 8.97532 8.74884C8.98146 8.809 8.98405 8.86588 8.97999 8.90734C8.97845 8.92302 8.97617 8.93396 8.974 8.94098C7.47623 9.19235 6.34645 9.63106 5.61982 10.1523C4.89215 10.6744 4.55605 11.2903 4.68899 11.8886C4.82095 12.4824 5.40891 13.0248 6.44661 13.4178C7.48741 13.8121 8.99563 14.0625 11 14.0625C13.0044 14.0625 14.5126 13.8121 15.5534 13.4178C16.5911 13.0248 17.179 12.4824 17.311 11.8886C17.4439 11.2903 17.1078 10.6744 16.3802 10.1523C15.6536 9.63106 14.5238 9.19235 13.026 8.94098C13.0238 8.93396 13.0216 8.92302 13.02 8.90734C13.0159 8.86588 13.0185 8.809 13.0247 8.74884C13.0307 8.68954 13.0399 8.63044 13.0475 8.58593Z" fill="#175E54" stroke="white" stroke-width="0.125"/>
</g>
<defs>
<clipPath id="clip0_2_22">
<rect width="22" height="22" fill="white"/>
</clipPath>
</defs>
</svg>
